<?xml version="1.0" encoding="utf-8"?>
<!-- Generator: Adobe Illustrator 26.4.0, SVG Export Plug-In . SVG Version: 6.00 Build 0)  -->
<svg version="1.1" id="Layer_1" xmlns="http://www.w3.org/2000/svg" xmlns:xlink="http://www.w3.org/1999/xlink" x="0px" y="0px"
	 viewBox="0 0 415 545" style="enable-background:new 0 0 415 545;" xml:space="preserve">
<style type="text/css">
	.st0{fill:none;stroke:#D1D3D4;stroke-width:6.5506;}
	.st1{fill:none;stroke:#D1D3D4;stroke-width:6.5506;stroke-linecap:round;}
	.st2{fill:none;stroke:#5C6E92;stroke-width:9.8258;stroke-linecap:round;}
	.st3{fill:#A7A9AC;}
	.st4{fill:none;stroke:#58595B;stroke-width:3.2753;}
	.st5{fill:none;stroke:#D1D3D4;stroke-width:10.9176;}
	.st6{fill:#004B75;}
	.st7{fill:#FFFFFF;}
	.st8{fill:none;stroke:#FFFFFF;stroke-width:2.1835;}
	.st9{fill:#D1D3D4;}
	.st10{fill:#58595B;}
	.st11{fill:#5C6E92;}
	.st12{fill:#00AE4D;}
	.st13{fill:none;stroke:#58595B;stroke-width:1.0918;}
	.st14{fill:none;stroke:#D1D3D4;stroke-width:1.0918;}
	.st15{filter:url(#Adobe_OpacityMaskFilter);}
	.st16{fill:url(#SVGID_00000049206584751849226630000008954945541916527547_);}
	.st17{mask:url(#SVGID_1_);}
	.st18{clip-path:url(#SVGID_00000136378313263674146610000011283486481186530960_);fill:#008AC4;}
	.st19{fill:none;stroke:#E8E9EA;stroke-width:2.1835;}
	.st20{fill:none;stroke:#D1D3D4;stroke-width:3.2753;}
	.st21{fill:none;stroke:#58595B;stroke-width:3.2753;stroke-linecap:round;}
	.st22{fill:none;stroke:#A7A9AC;stroke-width:5.4588;stroke-linecap:round;}
	.st23{fill:none;stroke:#00AE4D;stroke-width:4.367;}
	.st24{opacity:0.5;}
	.st25{clip-path:url(#SVGID_00000158002007648864846100000012649516192451919768_);fill:#5C6E92;}
	.st26{fill:none;stroke:#008AC4;stroke-width:9.8258;stroke-dasharray:4.4096,4.4096;}
	.st27{opacity:0.3;}
	.st28{clip-path:url(#SVGID_00000138557321575771011080000013008894715511544229_);fill:none;stroke:#008AC4;stroke-width:3.2753;}
	.st29{fill:none;stroke:#D6D7D8;stroke-width:6.5506;}
	.st30{fill:#AEB0B1;}
</style>
<g>
	<line class="st0" x1="67.8" y1="216" x2="97.1" y2="216"/>
	<line class="st1" x1="95" y1="216" x2="111.8" y2="216"/>
	<line class="st2" x1="47" y1="216" x2="71.1" y2="216"/>
	<rect x="87.4" y="269.1" class="st3" width="2.2" height="3.3"/>
	<g>
		<path class="st3" d="M101.2,538.2c-5.1,0-9.3-4.2-9.3-9.3c0-5.1,18.6-5.1,18.6,0C110.5,534.1,106.3,538.2,101.2,538.2"/>
		<path class="st4" d="M101.2,538.2c-5.1,0-9.3-4.2-9.3-9.3c0-5.1,18.6-5.1,18.6,0C110.5,534.1,106.3,538.2,101.2,538.2z"/>
		<path class="st3" d="M13.1,542.6c-6.3,0-11.5-5.1-11.5-11.5s5.1-11.5,11.5-11.5s11.5,5.1,11.5,11.5S19.4,542.6,13.1,542.6"/>
		<circle class="st4" cx="13.1" cy="531.2" r="11.5"/>
		<line class="st5" x1="101.2" y1="525.7" x2="101.2" y2="0.6"/>
	</g>
	<rect x="63.9" y="380.5" class="st3" width="8.7" height="29.5"/>
	<g>
		<path class="st6" d="M80.3,36.6c9.6,0,17.5-7.8,17.5-17.5S89.9,1.6,80.3,1.6S62.8,9.5,62.8,19.1S70.7,36.6,80.3,36.6"/>
	</g>
	<g>
		<path class="st7" d="M77.3,13.2h3.5c3.3,0,5.4,2.3,5.4,5.6V19c0,3.4-2.2,5.7-5.4,5.7h-3.5V13.2z M79.2,14.9v8h1.6
			c2.1,0,3.5-1.5,3.5-3.9v-0.1c0-2.5-1.4-4-3.5-4H79.2z"/>
	</g>
	<g>
		<circle class="st8" cx="80.3" cy="19.1" r="17.5"/>
	</g>
	<rect x="119.7" y="389.2" class="st9" width="85.6" height="115.7"/>
	<g>
		<path class="st3" d="M207.5,398v-8.7h-87.8l-2.2,26.2h17.8V409c0-3.4,1.1-6.6,7.2-6.9C191.1,399,207.5,398,207.5,398"/>
	</g>
	<polygon class="st10" points="183.1,491.8 172.1,504.9 203.2,504.9 203.2,491.8 	"/>
	<rect x="119.7" y="458" class="st11" width="87.8" height="8.7"/>
	<g>
		<path class="st9" d="M68.3,426.3c9,0,16.4-7.3,16.4-16.4c0-9-7.3-16.4-16.4-16.4c-9,0-16.4,7.3-16.4,16.4
			C51.9,419,59.2,426.3,68.3,426.3"/>
	</g>
	<rect x="51.9" y="410" class="st3" width="32.8" height="89.5"/>
	<rect x="51.9" y="499.5" class="st9" width="32.8" height="5.5"/>
	<g>
		<path class="st3" d="M189.3,542.6c6.3,0,11.5-5.1,11.5-11.5s-5.1-11.5-11.5-11.5c-6.3,0-11.5,5.1-11.5,11.5
			S182.9,542.6,189.3,542.6"/>
		<circle class="st4" cx="189.3" cy="531.2" r="11.5"/>
	</g>
	<rect x="83.6" y="105.2" class="st3" width="9.8" height="9.8"/>
	<rect x="83.6" y="57.9" class="st9" width="9.8" height="30"/>
	<rect x="86.8" y="115" class="st12" width="3.3" height="154.2"/>
	<rect x="90.1" y="90.1" class="st3" width="16.4" height="13.1"/>
	<rect x="80.3" y="87.9" class="st10" width="16.4" height="17.5"/>
	<g>
		<path class="st7" d="M88.5,102.1c3,0,5.5-2.4,5.5-5.5c0-3-2.4-5.5-5.5-5.5c-3,0-5.5,2.4-5.5,5.5C83,99.6,85.5,102.1,88.5,102.1"/>
	</g>
	<line class="st13" x1="93.4" y1="84.9" x2="87.9" y2="84.9"/>
	<line class="st13" x1="93.4" y1="82.7" x2="90.1" y2="82.7"/>
	<line class="st13" x1="93.4" y1="80.6" x2="87.9" y2="80.6"/>
	<line class="st13" x1="93.4" y1="78.4" x2="90.1" y2="78.4"/>
	<line class="st13" x1="93.4" y1="76.2" x2="87.9" y2="76.2"/>
	<line class="st13" x1="93.4" y1="74" x2="90.1" y2="74"/>
	<line class="st13" x1="93.4" y1="71.8" x2="87.9" y2="71.8"/>
	<line class="st13" x1="93.4" y1="69.6" x2="90.1" y2="69.6"/>
	<line class="st13" x1="93.4" y1="67.5" x2="87.9" y2="67.5"/>
	<line class="st13" x1="93.4" y1="65.3" x2="90.1" y2="65.3"/>
	<line class="st13" x1="93.4" y1="63.1" x2="87.9" y2="63.1"/>
	<line class="st13" x1="93.4" y1="60.9" x2="90.1" y2="60.9"/>
	<line class="st14" x1="134.9" y1="62.2" x2="129.4" y2="62.2"/>
	<line class="st14" x1="134.9" y1="60.1" x2="131.6" y2="60.1"/>
	<line class="st14" x1="134.9" y1="57.9" x2="129.4" y2="57.9"/>
	<line class="st14" x1="134.9" y1="55.7" x2="131.6" y2="55.7"/>
	<line class="st14" x1="134.9" y1="53.5" x2="129.4" y2="53.5"/>
	<line class="st14" x1="134.9" y1="51.3" x2="131.6" y2="51.3"/>
	<line class="st14" x1="134.9" y1="49.1" x2="129.4" y2="49.1"/>
	<line class="st14" x1="134.9" y1="47" x2="131.6" y2="47"/>
	<line class="st14" x1="134.9" y1="44.8" x2="129.4" y2="44.8"/>
	<line class="st14" x1="134.9" y1="42.6" x2="131.6" y2="42.6"/>
	<line class="st14" x1="134.9" y1="40.4" x2="129.4" y2="40.4"/>
	<line class="st14" x1="134.9" y1="38.2" x2="131.6" y2="38.2"/>
	<g>
		<defs>
			<filter id="Adobe_OpacityMaskFilter" filterUnits="userSpaceOnUse" x="89" y="-3.8" width="57.9" height="101.5">
				<feFlood  style="flood-color:white;flood-opacity:1" result="back"/>
				<feBlend  in="SourceGraphic" in2="back" mode="normal"/>
			</filter>
		</defs>
		<mask maskUnits="userSpaceOnUse" x="89" y="-3.8" width="57.9" height="101.5" id="SVGID_1_">
			<g class="st15">
				
					<linearGradient id="SVGID_00000019667537668472208190000004688011803500244352_" gradientUnits="userSpaceOnUse" x1="-473.231" y1="650.0353" x2="-472.1392" y2="650.0353" gradientTransform="matrix(0 -85 -85 0 55460.5 -40128)">
					<stop  offset="0" style="stop-color:#333333"/>
					<stop  offset="6.000000e-03" style="stop-color:#333333"/>
					<stop  offset="0.5" style="stop-color:#333333"/>
					<stop  offset="0.5002" style="stop-color:#252525"/>
					<stop  offset="0.5007" style="stop-color:#141414"/>
					<stop  offset="0.5012" style="stop-color:#090909"/>
					<stop  offset="0.5019" style="stop-color:#020202"/>
					<stop  offset="0.504" style="stop-color:#000000"/>
					<stop  offset="0.5741" style="stop-color:#000000"/>
					<stop  offset="1" style="stop-color:#000000"/>
				</linearGradient>
				<rect y="-7.1" style="fill:url(#SVGID_00000019667537668472208190000004688011803500244352_);" width="415" height="551.3"/>
			</g>
		</mask>
		<g class="st17">
			<g>
				<defs>
					<rect id="SVGID_00000168095097022037102360000001020382415474296455_" x="89" y="-3.8" width="57.9" height="101.5"/>
				</defs>
				<clipPath id="SVGID_00000085222562531777527040000016033005898357603461_">
					<use xlink:href="#SVGID_00000168095097022037102360000001020382415474296455_"  style="overflow:visible;"/>
				</clipPath>
				<path style="clip-path:url(#SVGID_00000085222562531777527040000016033005898357603461_);fill:#008AC4;" d="M117.9,5.5
					c-6,6.9-12,13.7-18,20.6v48.3c6,6.9,12,13.7,18,20.6c6-6.9,12-13.7,18-20.6V26.1C129.9,19.2,123.9,12.4,117.9,5.5"/>
			</g>
		</g>
		<path class="st19" d="M117.9,5.5c-6,6.9-12,13.7-18,20.6v48.3c6,6.9,12,13.7,18,20.6c6-6.9,12-13.7,18-20.6V26.1
			C129.9,19.2,123.9,12.4,117.9,5.5z"/>
	</g>
	<line class="st20" x1="101.2" y1="2.2" x2="118" y2="2.2"/>
	<line class="st21" x1="48.1" y1="419.8" x2="87.4" y2="419.8"/>
	<line class="st21" x1="57.4" y1="504.9" x2="57.4" y2="419.8"/>
	<line class="st21" x1="79.8" y1="504.9" x2="79.8" y2="419.8"/>
	<line class="st21" x1="48.1" y1="504.9" x2="209.6" y2="504.9"/>
	<line class="st21" x1="48.1" y1="471.3" x2="87.4" y2="471.3"/>
	<g>
		<polyline class="st22" points="5,514.8 31.2,514.8 43.2,526.8 159.2,526.8 171.2,514.8 197.3,514.8 		"/>
		<path class="st23" d="M101.2,103.2v262c0,17.5-7.7,25.1-28.5,25.1"/>
		<path class="st11" d="M191.1,337.8v-9.7l-40.9-49.6l-0.7-3.3c-0.1-0.6-0.6-1-1.2-1l-16-0.7v-15.8h-13.3v15.3c0,0-5.3-0.5-37.5-1.7
			c-5.7-0.2-8.7,4.4-8.7,8.8v57.9c0,4.4,3.4,6.1,5.2,6.1c0,0,98.7,0,105.1,0C189.5,344,191.1,341.5,191.1,337.8"/>
		<g class="st24">
			<g>
				<defs>
					<rect id="SVGID_00000011750805579216344230000015916545154545868957_" x="141.9" y="272.8" width="55" height="51.6"/>
				</defs>
				<clipPath id="SVGID_00000150798681725236183770000002394209663745869730_">
					<use xlink:href="#SVGID_00000011750805579216344230000015916545154545868957_"  style="overflow:visible;"/>
				</clipPath>
				<path style="clip-path:url(#SVGID_00000150798681725236183770000002394209663745869730_);fill:#5C6E92;" d="M187.1,323.3
					l-1.1-19c-0.2-2.3-1.6-4.4-3.7-5.4c-2.2-1-5.6-2.1-10.8-2.9v0.1H171V296c0.2,0,0.3,0,0.4,0.1v-8.7c0,0,0.6-7-7-7h-12.7
					L187.1,323.3z"/>
			</g>
		</g>
		<path class="st7" d="M77.9,282.2c0-6.6,4.1-5.5,6.8-5.5s59.8,2.5,59.8,2.5l41.9,50.2v6.3L77.9,317.6V282.2z"/>
		<path class="st26" d="M125.1,252.1c0-107.6,88.9-133.7,156.6-68.4"/>
		<path class="st6" d="M205.6,163.8c9.6,0,17.5-7.8,17.5-17.5s-7.8-17.5-17.5-17.5s-17.5,7.8-17.5,17.5S196,163.8,205.6,163.8"/>
	</g>
	<g>
		<path class="st7" d="M201.2,140.4h4.1c1.2,0,2.3,0.3,2.9,1c0.5,0.5,0.8,1.1,0.8,1.9v0c0,1.4-0.8,2.1-1.7,2.6
			c1.3,0.4,2.2,1.2,2.2,2.7v0.1c0,2-1.6,3.1-4.1,3.1h-4.2V140.4z M207.1,143.7c0-1-0.7-1.5-1.9-1.5h-2.1v3.2h2
			C206.3,145.3,207.1,144.8,207.1,143.7L207.1,143.7z M205.4,146.9h-2.3v3.3h2.4c1.3,0,2.1-0.6,2.1-1.6v0
			C207.6,147.6,206.9,146.9,205.4,146.9z"/>
	</g>
	<g>
		<circle class="st8" cx="205.6" cy="146.4" r="17.5"/>
		<g class="st27">
			<g>
				<defs>
					<rect id="SVGID_00000117672544600121062280000016342705129469180569_" x="106.5" y="87.1" width="64.9" height="194.4"/>
				</defs>
				<clipPath id="SVGID_00000147209199431168065960000015506457254715478963_">
					<use xlink:href="#SVGID_00000117672544600121062280000016342705129469180569_"  style="overflow:visible;"/>
				</clipPath>
				
					<path style="clip-path:url(#SVGID_00000147209199431168065960000015506457254715478963_);fill:none;stroke:#008AC4;stroke-width:3.2753;" d="
					M160,280.4c0-45.1-42-16.7-42-64.7V94.7"/>
			</g>
		</g>
	</g>
	<g>
		<path class="st6" d="M72.7,327.4c9.6,0,17.5-7.8,17.5-17.5c0-9.6-7.8-17.5-17.5-17.5s-17.5,7.8-17.5,17.5
			C55.2,319.5,63.1,327.4,72.7,327.4"/>
	</g>
	<g>
		<path class="st7" d="M71.2,303.9h1.8l4.2,11.5h-2l-0.9-2.7h-4.5l-0.9,2.7H67L71.2,303.9z M73.8,311l-1.6-4.6l-1.6,4.6H73.8z"/>
	</g>
	<g>
		<circle class="st8" cx="72.7" cy="309.9" r="17.5"/>
	</g>
	<rect x="58.4" y="385.4" class="st9" width="19.7" height="3.3"/>
	<g>
		<path class="st29" d="M297.5,196.9c15.3,11.1,23.2,3.9,40.7,16.4"/>
		<path class="st30" d="M401.1,190.9c-0.8,1.4-1.1,2.4-1,3.2c-1.4,2.9-7.7,16.4-9.2,18.5c-1.7,2.3-12.3,5.1-14.5,5.7
			c-2.2,0.7-2.6-0.8-2.6-0.8v-4.9c0,0,0-1.7-1.7-1.7c-1.7,0-1,1.6-1,4.5c0,2.9-0.5,4.5-0.5,4.5s-1.1,0.4-2.6,0.4
			c-1.5,0-2.8-0.3-2.8-0.3s-0.4-1.5-0.4-4.5c0-2.9,0.9-4.7-0.8-4.7c-1.7,0-1.7,1.7-1.7,1.7v4.9c0,0-0.5,1.6-2.2,1
			c-3.3-1.1-10.9-4.2-14.8-6c-1.5-2.1-7.5-15.6-8.8-18.5c0.1-0.7-0.2-1.8-1-3.2c0,0-9.2-13.8-11-27.4c0.3-3.6,1-6.9,2-9.8
			c2.8-0.3,20.3-2.4,41.6-2.4c21.3,0,38.8,2,41.6,2.4c1.2,3.4,2,7.3,2.1,11.8C409.4,178.5,401.1,190.9,401.1,190.9 M411.2,150.1
			l0,0.1c-4.6-12.2-18.8-23.5-43.1-23.5v4.4c0,0,27.7-1.4,39,17.3c-6.3-0.7-21.2-2.1-39-2.1c-17.8,0-32.7,1.4-39,2.1
			c11.3-18.7,39-17.3,39-17.3v-4.4c-26.9,0-41.4,13.9-44.3,27.4c-1.5,5.7-3.6,16.3-0.9,23.5c4,10.6,9.6,17.3,9.6,17.3s1,1.3,2.1,1.3
			l-0.1,0.1c0.9,2,4,9,6.3,13.8c0,0-0.6-0.7-3-0.7c-2.7,0-4.8,2-4.8,4.4c0,1.7,1.1,3.2,2.6,3.9l1,0.6l9.7,6l2.2,1.8l1,0.6
			c2.1,1,3.1,0.4,3.1,0.4l6.8,0.1l1,0.2c0,0,1.1,0.4,2.6,0.4h9.7c1.5,0,2.6-0.4,2.6-0.4s1.7-2,2.2-3.9c2.7-1.3,9.1-4.5,9.1-4.5
			s7.7-2.3,8.5-8.9l0.1-0.1c2.4-4.9,5.5-11.9,6.3-13.8l-0.1-0.1c1.2,0.3,2.4-1.2,2.4-1.2s5.6-6.7,9.6-17.3
			C417.6,167.3,411.2,150.1,411.2,150.1"/>
		<path class="st30" d="M302.6,193.3c0,0-3.6-3.4-6.7-5.8c-3.1-2.4-7.2-5.1-7.2-5.1c-1.3-0.7-2.5-0.7-3.3,0.3l-1.1,1.4
			c0,0,0.2,0.7-0.3,1.5l0,0c-0.6,0.7-1.3,0.7-1.3,0.7l-1.1,1.4c-0.8,1-0.4,2.1,0.5,3.3c0,0,3.6,3.4,6.7,5.8c3.1,2.4,7.2,5.1,7.2,5.1
			c1.3,0.7,2.5,0.7,3.3-0.3l3.8-4.8C303.9,195.7,303.6,194.5,302.6,193.3"/>
	</g>
</g>
<path class="st6" d="M364,178.4c9.6,0,17.5-7.8,17.5-17.5s-7.8-17.5-17.5-17.5s-17.5,7.8-17.5,17.5S354.4,178.4,364,178.4"/>
<circle class="st8" cx="364" cy="161" r="17.5"/>
<g>
	<path class="st7" d="M359.2,160.9v-0.1c0-3.5,2.2-5.8,5.1-5.8c1.6,0,2.7,0.6,3.6,1.4l-1.1,1.5c-0.7-0.6-1.4-1.1-2.5-1.1
		c-1.8,0-3.2,1.6-3.2,4.1v0.1c0,2.5,1.4,4.1,3.2,4.1c1.1,0,1.8-0.5,2.5-1.2l1.1,1.3c-1,1-2.2,1.6-3.8,1.6
		C361.3,166.7,359.2,164.4,359.2,160.9z"/>
</g>
</svg>
